<svg width="40" height="40" viewBox="0 0 40 40" fill="none" xmlns="http://www.w3.org/2000/svg">
<rect width="40" height="40" rx="20" fill="white"/>
<path d="M24.5 12.5C26.706 12.5 28.5 14.294 28.5 16.5C28.5 21.169 22.957 25.441 20 27.523C17.043 25.441 11.5 21.169 11.5 16.5C11.5 14.294 13.294 12.5 15.5 12.5C16.1423 12.5014 16.7749 12.6572 17.3444 12.954C17.914 13.2509 18.404 13.6803 18.773 14.206L20 15.953L21.227 14.207C21.5958 13.681 22.0857 13.2513 22.6553 12.9543C23.2249 12.6572 23.8576 12.5014 24.5 12.5ZM24.5 11C23.6167 10.9999 22.7464 11.2129 21.963 11.621C21.1796 12.029 20.5062 12.6201 20 13.344C19.4938 12.6201 18.8204 12.029 18.037 11.621C17.2536 11.2129 16.3833 10.9999 15.5 11C14.0413 11 12.6424 11.5795 11.6109 12.6109C10.5795 13.6424 10 15.0413 10 16.5C10 22.219 16.5 26.938 20 29.35C23.5 26.938 30 22.219 30 16.5C30 15.7777 29.8577 15.0625 29.5813 14.3952C29.3049 13.728 28.8998 13.1216 28.3891 12.6109C27.8784 12.1002 27.2721 11.6951 26.6048 11.4187C25.9375 11.1423 25.2223 11 24.5 11Z" fill="black"/>
</svg>
