<svg width="44" height="45" viewBox="0 0 44 45" fill="none" xmlns="http://www.w3.org/2000/svg">
<rect y="0.75" width="44" height="44" rx="22" fill="#222222"/>
<path d="M17.5 18.42V17.45C17.5 15.2 19.31 12.99 21.56 12.78C24.24 12.52 26.5 14.63 26.5 17.26V18.64" stroke="white" stroke-width="1.5" stroke-miterlimit="10" stroke-linecap="round" stroke-linejoin="round"/>
<path d="M18.9998 32.75H24.9998C29.0198 32.75 29.7398 31.14 29.9498 29.18L30.6998 23.18C30.9698 20.74 30.2698 18.75 25.9998 18.75H17.9998C13.7298 18.75 13.0298 20.74 13.2998 23.18L14.0498 29.18C14.2598 31.14 14.9798 32.75 18.9998 32.75Z" stroke="white" stroke-width="1.5" stroke-miterlimit="10" stroke-linecap="round" stroke-linejoin="round"/>
<path d="M25.4955 22.75H25.5045" stroke="white" stroke-width="2" stroke-linecap="round" stroke-linejoin="round"/>
<path d="M18.4945 22.75H18.5035" stroke="white" stroke-width="2" stroke-linecap="round" stroke-linejoin="round"/>
</svg>
