<svg width="112" height="40" viewBox="0 0 112 40" fill="none" xmlns="http://www.w3.org/2000/svg">
<path d="M72 0H92C103.046 0 112 8.95431 112 20C112 31.0457 103.046 40 92 40H72V0Z" fill="#222222"/>
<path d="M89 26L94.2929 20.7071C94.6262 20.3738 94.7929 20.2071 94.7929 20C94.7929 19.7929 94.6262 19.6262 94.2929 19.2929L89 14" stroke="white" stroke-width="1.5" stroke-linecap="round" stroke-linejoin="round"/>
<path d="M40 0H20C8.95431 0 0 8.95431 0 20C0 31.0457 8.95431 40 20 40H40V0Z" fill="#222222"/>
<path d="M23 26L17.7071 20.7071C17.3738 20.3738 17.2071 20.2071 17.2071 20C17.2071 19.7929 17.3738 19.6262 17.7071 19.2929L23 14" stroke="white" stroke-width="1.5" stroke-linecap="round" stroke-linejoin="round"/>
</svg>
