<svg width="24" height="25" viewBox="0 0 24 25" fill="none" xmlns="http://www.w3.org/2000/svg">
<g clip-path="url(#clip0_1_393)">
<path d="M12 24.5C18.6274 24.5 24 19.1274 24 12.5C24 5.87258 18.6274 0.5 12 0.5C5.37258 0.5 0 5.87258 0 12.5C0 19.1274 5.37258 24.5 12 24.5Z" fill="#F0F0F0"/>
<path d="M2.48081 5.19409C1.5382 6.42048 0.827434 7.834 0.413574 9.36958H6.65629L2.48081 5.19409Z" fill="#0052B4"/>
<path d="M23.5869 9.36953C23.173 7.834 22.4622 6.42048 21.5196 5.19409L17.3442 9.36953H23.5869Z" fill="#0052B4"/>
<path d="M0.413574 15.6304C0.82748 17.1659 1.53825 18.5794 2.48081 19.8058L6.65615 15.6304H0.413574Z" fill="#0052B4"/>
<path d="M19.3058 2.98061C18.0794 2.038 16.6659 1.32724 15.1304 0.91333V7.156L19.3058 2.98061Z" fill="#0052B4"/>
<path d="M4.69434 22.0193C5.92073 22.9619 7.33424 23.6727 8.86977 24.0866V17.844L4.69434 22.0193Z" fill="#0052B4"/>
<path d="M8.86973 0.91333C7.33419 1.32724 5.92068 2.038 4.69434 2.98056L8.86973 7.15595V0.91333Z" fill="#0052B4"/>
<path d="M15.1309 24.0866C16.6664 23.6727 18.0799 22.9619 19.3063 22.0194L15.1309 17.844V24.0866Z" fill="#0052B4"/>
<path d="M17.3442 15.6304L21.5196 19.8058C22.4622 18.5795 23.173 17.1659 23.5869 15.6304H17.3442Z" fill="#0052B4"/>
<path d="M23.8984 10.9348H13.5653H13.5653V0.601578C13.0529 0.534875 12.5305 0.5 12 0.5C11.4694 0.5 10.9471 0.534875 10.4348 0.601578V10.9347V10.9347H0.101578C0.034875 11.4471 0 11.9695 0 12.5C0 13.0306 0.034875 13.5529 0.101578 14.0652H10.4347H10.4347V24.3984C10.9471 24.4651 11.4694 24.5 12 24.5C12.5305 24.5 13.0529 24.4652 13.5652 24.3984V14.0653V14.0653H23.8984C23.9651 13.5529 24 13.0306 24 12.5C24 11.9695 23.9651 11.4471 23.8984 10.9348Z" fill="#D80027"/>
<path d="M15.1304 15.6304L20.4852 20.9852C20.7315 20.739 20.9664 20.4817 21.1906 20.2148L16.6061 15.6304H15.1304V15.6304Z" fill="#D80027"/>
<path d="M8.86951 15.6306H8.86941L3.51465 20.9854C3.76084 21.2317 4.01823 21.4666 4.28504 21.6908L8.86951 17.1062V15.6306Z" fill="#D80027"/>
<path d="M8.86976 9.3696V9.36951L3.51495 4.01465C3.26866 4.26084 3.03373 4.51823 2.80957 4.78504L7.39409 9.36955H8.86976V9.3696Z" fill="#D80027"/>
<path d="M15.1304 9.36956L20.4852 4.01465C20.239 3.76837 19.9817 3.53344 19.7148 3.30933L15.1304 7.89384V9.36956Z" fill="#D80027"/>
</g>
<defs>
<clipPath id="clip0_1_393">
<rect width="24" height="24" fill="white" transform="translate(0 0.5)"/>
</clipPath>
</defs>
</svg>
